<?xml version="1.0" standalone="no"?>
<!DOCTYPE svg PUBLIC "-//W3C//DTD SVG 1.1//EN" "http://www.w3.org/Graphics/SVG/1.1/DTD/svg11.dtd" >
<svg xmlns="http://www.w3.org/2000/svg" xmlns:svg="http://www.w3.org/2000/svg" xmlns:xlink="http://www.w3.org/1999/xlink" viewBox="0 0 1000 1000"><path d="M429.69 689.89Q394.55 710.88 354.99 649.86Q360.15 660.17 381.47 645.92L371.95 652.17Q354.94 594.63 375.59 579.31L351.84 184.1Q359.57 167.63 368.4 183.01Q361.32 122.31 338.01 147.57Q359.75 117.9 367.77 153.15Q340.65 126.94 428.8 122.71L569.06 138.09L555.03 151.36Q598.39 150.56 606.07 156.33Q603.83 137.35 623.65 144.32Q636.41 174.65 616.72 184.45Q615.21 156.9 626.42 173.82L582.37 602.06Q645.75 614.3 659.85 653.97Q630.11 636 655.54 636.21Q638.86 670.89 616.39 633.02L411.29 638.52V688.92Q427.45 705 425.35 676.65ZM76.13 845.23Q116.42 812.73 110.25 819.1Q141.78 769.76 201.05 700.37Q240.61 614.17 270.93 525.49Q268 506.89 270.17 498.85Q286.36 525.89 299.8 549.18Q279 555.93 249.22 661.7Q238.17 752.76 207.38 817.34Q182 898.63 162.84 919.04Q154.35 867.33 105.13 899.32Q118.76 893.43 90.73 871.72Q78.53 865.41 58.79 890.28Q64.82 862.2 78.3 859.38ZM83.02 293.71Q119.31 327.29 139.27 331.98Q209.63 390.99 255.35 406.62Q283.06 439.98 260.01 441.17Q250.48 436.75 264.77 440.29Q251.39 496.32 288.45 448.31Q271.82 474.85 222.58 466.79Q261.45 498.39 241.9 500.76Q120.77 418.45 68.38 390.21Q72.26 346.32 86.5 367.93Q58.81 322.8 87.14 341.26Q79.2 333.84 125.75 343.57ZM133.47 96.68Q197.14 125.25 231.17 126.09Q236.88 130.62 312.8 207.26Q335.04 204.85 295.25 248.05Q300.19 242.96 309.15 232Q279.07 276.58 280.74 248.35Q300.16 280.94 285.78 264.97Q208.05 219.41 168.05 134.62Q160.09 156.64 128.57 134.65Q118.23 103.86 152.72 96.53Q128.33 94.94 190.03 104.82ZM279.97 866.85Q331.31 790.17 422.33 731.65Q434.74 688.13 412.48 666.38Q444.36 656.84 448.49 691.47Q440.94 657.31 428.38 672.95Q444.01 681.5 441.78 716.46Q503 749.84 451.05 755.25Q505.22 756.89 453.55 719.45Q448.1 809.55 417.3 858.78Q368.62 861.92 313.67 900.89Q273.55 921.88 255.77 916.96Q280.02 936.3 288.2 927.15Q276 897.28 278.49 917.71ZM404.23 287.07L541.42 312.93L556.74 186.09L439.96 229.1ZM402.17 466.3L541.71 407.84L555.97 347.7L413.87 364.92ZM413.39 621.86L526.34 604.15L562.25 484.53L421.41 509.5ZM545.9 659.37Q572.15 682.42 615.87 749.51Q601.82 785.16 665.94 813.65Q647.96 851.65 692.18 858.95Q648.43 879.39 681.27 866.81Q666.09 861.4 625.89 896.08Q627.29 876.03 647.76 861.63Q631.34 874.86 583.35 851.41Q561 781.88 531.71 720.23Q540.96 728.2 541.03 698.42Q512.07 699.13 544.48 686.85Q511.97 679.62 534.52 713.66ZM720.81 191.66Q702.33 191.52 743.31 237.44Q774.42 260.7 768.43 217.96Q781.6 219.6 747.68 237.81L760.78 673.8Q762.18 737.94 748.33 726.24Q748.46 696.97 722.58 694.22Q733.97 722.21 699.93 675.38Q715.06 689.55 693.72 657.93Q712.06 665.75 684 631.79V278.97Q705.96 249.73 707.01 242.89Q721.34 226.95 682.56 200.24Q718.66 216.86 697.41 241.85ZM717.97 792.83Q725.19 833.66 740.79 828.07Q814.3 875.74 846.92 894.3L883.28 86.03Q856.56 98.35 823.6 38.16Q866.72 81.17 833.09 37.23Q855.69 19.73 855.29 47.64Q862.82 20.46 878.41 75.41Q913.69 62.56 920.17 102.09Q940.26 81.96 938.02 67.78L946.45 843.09Q936.81 857.14 908.1 893.92Q922.27 864.45 926.08 903.93Q909.17 898.71 926.81 963.28Q894.24 941.27 871.13 950.62Q891.69 945.21 798.14 947.76Q787.78 868.26 724.95 847.77Q708.43 811.93 674.03 814.46Q703.68 836.36 727.31 800.16Z" fill="black"></path></svg>