<?xml version="1.0" standalone="no"?>
<!DOCTYPE svg PUBLIC "-//W3C//DTD SVG 1.1//EN" "http://www.w3.org/Graphics/SVG/1.1/DTD/svg11.dtd" >
<svg xmlns="http://www.w3.org/2000/svg" xmlns:svg="http://www.w3.org/2000/svg" xmlns:xlink="http://www.w3.org/1999/xlink" viewBox="0 0 1000 1000"><path d="M403.5 686.5Q391.5 686.5 374.0 677.5Q356.5 668.5 356.5 653.5L357.5 646.5Q361.5 623.5 361.5 599.5L354.5 207.5Q354.5 174.5 347.5 159.5Q339.5 143.5 339.5 136.5Q339.5 129.5 349.5 129.5Q363.5 129.5 414.5 147.5L571.5 137.5L582.5 136.5Q595.5 136.5 608.5 146.5Q621.5 156.5 621.5 171.5Q621.5 176.5 620.5 181.0Q619.5 185.5 619.5 189.5L610.5 603.5Q632.5 629.5 632.5 641.5Q632.5 646.5 627.0 648.5Q621.5 650.5 608.5 651.5L419.5 660.5V666.5Q419.5 686.5 403.5 686.5ZM82.5 852.5Q105.5 839.5 119.5 816.5Q157.5 754.5 198.0 680.5Q238.5 606.5 266.5 548.5Q281.5 517.5 293.5 517.5Q301.5 517.5 301.5 532.5Q301.5 548.5 267.0 642.5Q232.5 736.5 194.5 815.5Q156.5 894.5 138.5 894.5Q133.5 893.5 118.0 890.5Q102.5 887.5 88.5 880.5Q74.5 873.5 74.5 862.5Q74.5 857.5 82.5 852.5ZM106.5 320.5Q117.5 320.5 164.5 352.0Q211.5 383.5 262.5 422.5Q277.5 434.5 277.5 444.5Q277.5 447.5 272.5 457.5Q267.5 467.5 259.5 475.5Q251.5 483.5 242.5 483.5Q235.5 483.5 221.5 471.5Q150.5 405.5 95.5 371.5Q81.5 362.5 81.5 353.5Q81.5 347.5 90.0 334.0Q98.5 320.5 106.5 320.5ZM162.5 98.5Q172.5 98.5 211.5 129.5Q250.5 160.5 285.5 194.5Q320.5 228.5 320.5 237.5Q320.5 244.5 307.5 259.5Q294.5 274.5 282.5 274.5Q273.5 274.5 261.5 260.5Q214.5 205.5 146.5 149.5Q133.5 139.5 133.5 130.5Q133.5 124.5 142.0 111.5Q150.5 98.5 162.5 98.5ZM285.5 888.5Q357.5 813.5 408.5 728.5Q415.5 717.5 415.5 695.5Q415.5 685.5 424.5 685.5Q430.5 685.5 444.0 693.5Q457.5 701.5 467.5 712.5Q477.5 723.5 477.5 733.5Q477.5 737.5 474.5 742.5Q435.5 798.5 394.0 837.5Q352.5 876.5 321.0 895.5Q289.5 914.5 280.5 914.5Q273.5 914.5 273.5 908.5Q273.5 900.5 285.5 888.5ZM413.5 297.5 558.5 288.5 559.5 190.5 412.5 199.5ZM416.5 445.5 556.5 437.5 557.5 339.5 414.5 347.5ZM418.5 607.5 554.5 599.5 555.5 488.5 416.5 496.5ZM547.5 687.5Q558.5 687.5 588.0 722.5Q617.5 757.5 644.0 798.5Q670.5 839.5 670.5 848.5Q670.5 861.5 654.5 871.5Q638.5 881.5 629.5 881.5Q623.5 881.5 620.0 877.5Q616.5 873.5 611.5 864.5Q571.5 791.5 523.5 733.5Q515.5 723.5 515.5 716.5Q515.5 706.5 526.5 697.0Q537.5 687.5 547.5 687.5ZM702.5 220.5Q713.5 220.5 740.5 230.5Q756.5 236.5 762.0 243.0Q767.5 249.5 767.5 263.5L769.5 695.5Q769.5 722.5 752.5 722.5Q735.5 722.5 720.0 711.0Q704.5 699.5 704.5 686.5Q704.5 680.5 705.5 676.5Q710.5 644.5 710.5 606.5V279.5Q710.5 259.5 698.5 236.5Q694.5 226.5 694.5 225.5Q694.5 220.5 702.5 220.5ZM708.5 814.5Q718.5 814.5 737.5 823.5Q805.5 857.5 862.5 874.5L864.5 111.5Q864.5 88.5 847.5 65.5Q842.5 58.5 842.5 54.5Q842.5 48.5 853.5 48.5Q862.5 48.5 894.5 58.5Q915.5 66.5 920.5 74.0Q925.5 81.5 925.5 97.5L923.5 862.5Q923.5 871.5 924.5 880.5Q925.5 889.5 925.5 897.5Q925.5 922.5 910.5 937.0Q895.5 951.5 880.5 951.5Q863.5 951.5 819.5 923.5Q775.5 895.5 737.5 863.0Q699.5 830.5 699.5 820.5Q699.5 814.5 708.5 814.5Z" fill="black"></path></svg>